Jump_normalized_Motion_pl10
version=1
nRows=10
nColumns=43
inDegrees=yes
endheader
time		pelvis_tilt		pelvis_list		pelvis_rotation		pelvis_tx		pelvis_ty		pelvis_tz		hip_flexion_r		hip_adduction_r		hip_rotation_r		knee_angle_r		ankle_angle_r		subtalar_angle_r		mtp_angle_r		hip_flexion_l		hip_adduction_l		hip_rotation_l		knee_angle_l		ankle_angle_l		subtalar_angle_l		mtp_angle_l		lumbar_extension		lumbar_bending		lumbar_rotation		neck_flexion		neck_lateral_bending		neck_rotation		arm_flex_r		arm_add_r		arm_rot_r		elbow_flex_r		pro_sup_r		wrist_flex_r		wrist_dev_r		hand_finger_flex_r		arm_flex_l		arm_add_l		arm_rot_l		elbow_flex_l		pro_sup_l		wrist_flex_l		wrist_dev_l		hand_finger_flex_l		
0.232500		3.714906		-31.145412		91.132788		0.015464		1.693231		1.787347		89.608486		-11.246762		6.426566		-137.014660		45.054737		5.126102		-23.786748		91.771282		-12.548314		6.510395		-136.991112		45.840285		-4.419208		-33.740900		-31.628417		-0.183365		1.188223		41.327723		2.292115		4.936234		107.470399		-21.415951		34.225547		74.017694		61.113427		-27.273978		-21.155442		59.565236		119.349862		-19.900595		51.934114		72.677157		67.700613		-49.048266		5.852559		73.429387		
0.234697		3.716036		-31.347718		91.147000		0.015343		1.694154		1.784300		89.322104		-11.279241		6.407973		-136.835855		44.993699		5.243400		-23.701544		91.466483		-12.501718		6.474822		-136.820731		45.785472		-4.435962		-33.721682		-31.305752		-0.139100		1.141280		41.199915		2.247347		4.991041		108.165590		-21.147594		34.489943		73.620289		61.067574		-27.503856		-21.107306		59.592528		119.977274		-19.740763		52.108819		72.423415		67.584131		-49.013082		5.837874		73.525532		
0.236894		3.730159		-31.523457		91.182526		0.015221		1.695116		1.781163		88.996822		-11.315826		6.415490		-136.678637		44.921874		5.383969		-23.598021		91.131568		-12.457993		6.467080		-136.620947		45.722488		-4.448191		-33.699358		-31.000820		-0.080025		1.075456		41.024984		2.185936		5.060198		108.877815		-20.901010		34.822407		73.198105		61.007606		-27.789053		-21.060153		59.620941		120.609498		-19.616896		52.348124		72.187670		67.448683		-48.967797		5.812066		73.642979		
0.239091		3.738592		-31.786478		91.199229		0.015160		1.696221		1.777815		88.714002		-11.320295		6.386885		-136.449149		44.860587		5.464256		-23.556871		90.826619		-12.418692		6.446820		-136.372653		45.663628		-4.429964		-33.693466		-30.602792		-0.057429		1.058325		40.896770		2.157670		5.091566		109.346376		-20.737056		34.913795		73.012775		60.975629		-27.922462		-21.041021		59.622112		121.054617		-19.477411		52.389851		72.118288		67.393703		-48.951383		5.788545		73.686091		
0.241288		3.760399		-32.012071		91.224176		0.015063		1.697075		1.774633		88.442217		-11.343624		6.368872		-136.270476		44.777051		5.583255		-23.502921		90.544420		-12.373717		6.446302		-136.195065		45.605486		-4.407567		-33.684306		-30.221620		-0.007153		1.023048		40.737262		2.128082		5.128376		109.970688		-20.492632		35.161715		72.596392		60.949817		-28.125119		-20.956850		59.599467		121.610173		-19.301132		52.556324		71.829000		67.333557		-48.916703		5.789532		73.726014		
0.243485		3.858515		-32.013978		91.358838		0.014741		1.698292		1.771285		87.883371		-11.453865		6.310557		-136.095838		44.712927		5.900832		-23.149508		90.044330		-12.263867		6.524013		-136.017110		45.531754		-4.381935		-33.604474		-30.121644		0.220253		0.878460		40.654135		1.932492		5.316961		110.887375		-20.108250		35.855603		72.001543		60.598004		-29.027508		-21.029855		59.690742		122.381491		-19.409216		53.014494		71.615872		66.905644		-48.921188		5.577856		73.996029		
0.245682		3.987368		-31.958945		91.538189		0.014357		1.699855		1.767660		87.194987		-11.581547		6.213076		-135.871007		44.653465		6.261289		-22.655970		89.441136		-12.135452		6.629419		-135.783632		45.442336		-4.341326		-33.492529		-30.103687		0.507813		0.717424		40.592850		1.671013		5.553937		111.768725		-19.749544		36.621816		71.520883		60.074967		-30.190482		-21.237085		59.874383		123.118664		-19.663471		53.493280		71.600695		66.313445		-48.987139		5.241402		74.354435		
0.247879		4.013231		-32.244103		91.556132		0.014327		1.700619		1.764320		86.981386		-11.571958		6.191161		-135.679922		44.495597		6.307788		-22.595338		89.217332		-12.127497		6.641998		-135.592070		45.353640		-4.286234		-33.483455		-29.606859		0.533665		0.740843		40.270684		1.682902		5.527827		112.257690		-19.620368		36.832719		71.155396		60.053073		-30.278675		-21.163416		59.924005		123.548724		-19.422234		53.636169		71.276940		66.295405		-49.015600		5.252517		74.334231		
0.250076		4.067706		-32.502111		91.608589		0.014268		1.701466		1.760877		86.727864		-11.568290		6.178853		-135.500172		44.320065		6.413690		-22.524957		88.964747		-12.109881		6.697894		-135.379527		45.243182		-4.212022		-33.472932		-29.134245		0.594357		0.740433		39.948817		1.668708		5.524006		112.764731		-19.505878		37.121432		70.773581		60.032393		-30.406958		-21.074101		59.963971		124.014775		-19.244285		53.886657		70.976450		66.300669		-48.998803		5.257945		74.329750		
0.252273		4.132597		-32.738126		91.674526		0.014203		1.702349		1.757348		86.429063		-11.573704		6.128375		-135.299277		44.146769		6.562753		-22.450661		88.681012		-12.071186		6.759112		-135.174388		45.121034		-4.121534		-33.461140		-28.687576		0.681279		0.730028		39.660822		1.643349		5.538581		113.253956		-19.365917		37.412684		70.404922		59.997992		-30.569313		-20.981736		59.987647		124.480345		-19.125803		54.147073		70.705673		66.317432		-48.961263		5.254209		74.328428		
